<svg xmlns="http://www.w3.org/2000/svg" version="1.1" xmlns:xlink="http://www.w3.org/1999/xlink" xmlns:svgjs="http://svgjs.dev/svgjs" width="1366" height="768" preserveAspectRatio="none" viewBox="0 0 1366 768"><g mask="url(&quot;#SvgjsMask1008&quot;)" fill="none"><rect width="1366" height="768" x="0" y="0" fill="rgba(251, 251, 251, 1)"></rect><path d="M -85.44784655577314,619 C 51.15,524.2 324.35,179.2 597.5521534442269,145 C 870.75,110.8 1007.35,449.6 1280.5521534442269,448 C 1553.75,446.4 1946.46,126.2 1963.5521534442269,137 C 1980.64,147.8 1485.51,429 1366,502" stroke="rgba(51, 121, 194, 0.58)" stroke-width="2"></path><path d="M -127.0892201302803,407 C 9.51,367.6 282.71,188 555.9107798697197,210 C 829.11,232 965.71,486.8 1238.9107798697196,517 C 1512.11,547.2 1896.49,345.8 1921.9107798697196,361 C 1947.33,376.2 1477.18,546.6 1366,593" stroke="rgba(51, 121, 194, 0.58)" stroke-width="2"></path><path d="M -1063.1498343567882,465 C -926.55,405.2 -653.35,149.6 -380.14983435678823,166 C -106.95,182.4 29.65,545.6 302.85016564321177,547 C 576.05,548.4 773.22,195.2 985.8501656432118,173 C 1198.48,150.8 1289.97,383.4 1366,436" stroke="rgba(51, 121, 194, 0.58)" stroke-width="2"></path><path d="M -1156.482968350966,519 C -1019.88,490.8 -746.68,376 -473.48296835096613,378 C -200.28,380 -63.68,540 209.51703164903387,529 C 482.72,518 661.22,342.4 892.5170316490339,323 C 1123.81,303.6 1271.3,410.2 1366,432" stroke="rgba(51, 121, 194, 0.58)" stroke-width="2"></path></g><defs><mask id="SvgjsMask1008"><rect width="1366" height="768" fill="#ffffff"></rect></mask></defs></svg>